              Wild.Wild.West.1999.720p.BRRip.x264.AAC.mp4-Zen_Bud

Format                           : MPEG-4
File size                        : 1.37 GiB
Duration                         : 1h 46mn
Overall bit rate                 : 1 852 Kbps
 


Video

Format                           : AVC
Format profile                   : Main@L3.1
Format settings, CABAC           : Yes
Duration                         : 1h 46mn
Bit rate                         : 1 655 Kbps
Width                            : 1 280 pixels
Height                           : 720 pixels
Display aspect ratio             : 16:9
Frame rate                       : 23.976 fps
Stream size                      : 1.23 GiB (89%)
Writing library                  : x264 core 115


Audio

Format                           : AAC
Duration                         : 1h 46mn
Bit rate                         : 192 Kbps
Channel(s)                       : 2 channels
Channel positions                : Front: L R
Sampling rate                    : 48.0 KHz
Stream size                      : 145 MiB (10%)
Language                         : English


Subtitel                         : Svenska [.srt]

============================================================================

The two best hired guns in the West must save President Grant from the 
clutches of a 19th century inventor-villain.

============================================================================
 
http://img3.imageshack.us/i/vlcsnap2011061208h31m13.png/
 
http://img690.imageshack.us/i/vlcsnap2011061208h32m14.png/
 
http://img194.imageshack.us/i/vlcsnap2011061208h32m49.png/
 
http://img806.imageshack.us/i/vlcsnap2011061208h33m27.png/
 
http://img585.imageshack.us/i/vlcsnap2011061208h34m46.png/ 


